<?xml version="1.0" encoding="UTF-8"?>
<svg id="Layer_2" data-name="Layer 2" xmlns="http://www.w3.org/2000/svg" viewBox="0 0 1481.6 1489.94">
  <g id="Layer_1-2" data-name="Layer 1">
    <g>
      <path d="M918.41,858.8c-113.23,142.61-243.39,144.82-354.53-.98-.97.5-1.93,1-2.9,1.5-7.58,66.69-9.25,145.37-65.02,191.68-90.11,76.39-93.46,70.27-205.67,94.67-183.29,27.36-215.06,137.31-263.82,295.24-4.67,9.74-14.35,51.66-24.97,48.41-1.76-1.79-2.04-5.57-.49-8.23,34.43-102.01,57.43-216.43,143.04-289.75,51.09-42.07,121.34-49.96,184.66-61.86,38.59-5.14,75.04-18.52,106.71-42.6,48.26-34.32,97.03-76.2,104.28-138.43,5.19-30.36,8.77-61,13.21-91.49.96-6.56-.92-11.57-4.94-16.93-45.12-60.26-63.51-79.72-68.59-157.8-24.57-2.5-41.93-12-49.55-36.03-8.05-22.9-15.42-46.17-21.04-69.77-6.81-28.61-11.56-57.72-16.96-86.66-2.49-18.02,2.25-37.15,24.82-32.95-6.1-44.59-16.48-88.14-18.56-133.14-3.93-98.68,53.95-189.98,132.77-245.7,32.17-24.72,67.52-42.41,106.78-52.75,6.5-2.16,12.64-4.41,18.66-7.92C686.93,1.6,723.37-1.63,757.39.66c21.45,3.68,45.34,4.01,64.59,14.87,8.73,6.05,18.46,8.49,28.26,11.41,24.36,6.18,47.19,16.11,67.65,30.74,106.77,57.77,183.88,177.9,162.31,301.39-4.7,32.42-10.88,64.7-15.22,97.16.97.47,1.58,1.05,2.07.96,12.7-2.27,19.81,1.92,21.82,14.81.81,56.82-18.06,113.1-34.57,167.12-7.07,24.63-25.16,43.18-52.2,42.27-7.4,85.66-21.61,93.54-69.62,160.02-11.85,12.45,8.04,94.66,10.87,115.61,11.54,64.57,66.37,105.28,117.49,139.92,35.49,23.2,77.44,31.12,118.74,36.44,41.93,7.34,82.88,18.3,122.28,34.56,115.39,62.27,140.61,203.7,179.76,317.54-3.03,11.93-11.62-3.31-13.31-8.21-43.62-116.45-69.07-277.75-208.73-314.73-53.17-13.07-106.71-24.62-159.94-37.44-16.77-4.1-32.68-10.83-46.53-21.11-111.37-76.05-121.26-112.37-132.65-244.27l-2.03-.91ZM1018.69,431.02c.35-.02.7-.03,1.05-.05-1.4-33.19-2.9-66.37-4.17-99.56-.62-16.26-5.96-30.47-15.43-43.8-79.62-111.5-233.73-146.48-361.15-108.59-65.16,16.64-161.36,78.06-172.85,148.08.07,87.55-17.5,176.89,4.11,262.98,11.31,40.35,18.16,81.47,21.76,123.23,2.11,24.5,8.84,47.8,23.23,68.31,63.25,85.73,152.33,210.79,274.6,167.76,75.07-28.57,122.65-98.12,170.42-159.02,16.8-22.73,26.18-47.97,28.8-75.84,3.86-79.72,39.78-154.77,32.29-235.28-.89-16.07-1.77-32.15-2.66-48.22ZM461.3,299.48c116.34-192.72,442.56-193.65,558.44-.11,31.61-111.07-.29-168.07-94.59-228.31,8.76,28.9,14.8,74.23-.21,101.24-3.26-39.86,9.85-96.5-33.28-119.01-17.14-7.76-32.22-15.11-50.71-20.42,16.36,33.04,19.53,65.84,15.85,100.75-.44,5.02-1.8,10.58-8.95,14.02,3.26-33.18,1.06-64.78-10.53-96.11-14.8-43.24-71.62-40.29-109.4-40.73-10.56.86-21.02,3-31.58,3.97-65.19,3.95-65.83,82.34-63.19,131.92-.89.51-1.78,1.02-2.67,1.54-16.96-36.53-4.54-78.9,8.81-114.87-86.96,22.3-84.78,59.63-81.65,138.8-17.8-24.04-9.25-73.06-1.85-100.62-95.51,60.25-124.73,116.5-94.49,227.97ZM1002.89,671.37c17.15-5.41,31.32-10,37.65-27.45,19.61-50.86,29.58-104.67,39.14-158.12,1.86-8.53-.79-29.1-13.14-18.58-9.82,13.14-8.86,32.06-14.6,47.2-3.26,10.95-8.84,20.67-18.92,27.29-2.18,1.43-3.72,4.75-4.35,7.48-9.33,41.42-18.45,79.73-25.78,122.17ZM477.73,670.19c-5.86-41.68-16.92-81.73-25.52-122.81-.52-2.3-2.58-4.72-4.59-6.12-16.32-10.84-18.99-31.01-24.16-48.37-1.59-5.93-2.41-12.07-3.78-18.07-1.31-5.71-6.45-10.41-11.01-10.41-8.93.02-8.27,17.67-6.77,25.03,9.07,50.13,19.71,100.02,36.21,148.33,6.48,18.87,19.22,28.91,39.63,32.42ZM408.47,325.3c-.4.14-.8.28-1.2.42,4.06,49.41,15.02,98.06,22.81,146.99,4.68,17.45,6.44,42.54,19.06,55.89,3.27-21.06.42-42.91,1.19-64.33-.03-3.29-.87-6.87-2.35-9.8-20.29-40.66-29.28-85.29-39.5-129.18ZM1030.94,527.52c.75.34,1.5.69,2.24,1.03,6.85-10.08,10.74-21.88,13.26-33.67,8.99-55.2,21.82-109.98,27.22-165.65-14.04,41.39-19.18,85.56-40.12,124.89-6.19,23.41-.99,49.18-2.6,73.39ZM1028.61,352.85c21.66-53.89,35.22-108.32,9.44-164.74,2.37,24.46,6.11,48.9-.27,73.14-3.18,14.3-8.89,28.02-12.98,42.15-3.83,16.31,2.32,33.12,3.81,49.45ZM443.68,188.86c-12.16,17.57-16.5,56.6-14.49,78.05,4.46,29.62,9.76,60.43,23.6,86.92,2.86-26.85,9.68-44.17-2.72-70.03-12.68-30.14-11.52-63.27-6.39-94.94ZM1065.32,269.33c-.5.02-1,.04-1.51.06-4.09,39.53-21.41,75.33-33.79,112.21.87,17.45-1.52,34.89,2.39,52.03,21.16-51.76,35.88-107.93,32.91-164.3ZM449.88,433.1c1.82-15.01-.61-29.44.94-44.33.62-7.18-.39-13.32-3.23-19.68-15.34-31.59-23.54-64.98-30.9-99-6.2,33.15,14.78,136.15,33.19,163.01Z"/>
      <path d="M601.09,953.82c21.5,56.03,39.45,113.65,59.64,170.25,1.19,6.48,6.52,12.85.8,18.85-23.82-61.36-45.87-124.69-63.35-188.34.97-.25,1.94-.5,2.91-.76Z"/>
      <path d="M882.38,953.93c-13.59,61.33-38.89,119.94-57.99,179.82-1.13,3.27-1.13,7.49-5.85,8.81-3.48-3.3-1.32-6.62-.41-9.58,18.49-60.58,39.6-120.52,62.27-179.62l1.98.57Z"/>
      <path d="M658.07,1172.84c-8.15-2.14-13.71-8.66-20.24-13.55-13.2-10.62-28.4-16.56-45.16-17.67-25.92-1.72-51.88-2.81-77.84-3.99-21.52-.98-43.05-1.66-64.58-2.57-3.25-.14-6.47-.83-9.8-3.18,43.73-2.32,88.2,1.48,132.17,1.49,32.59.33,66.65,11.21,86.57,37.74-.38.58-.75,1.16-1.13,1.74Z"/>
      <path d="M822.04,1170.75c19.4-23.71,48.11-35.93,78.52-36.99,47.34-.93,93.75-2.58,141.25-2.44-2.59,4.21-6.21,3.5-9.23,3.64-46.82,2.23-93.67,3.88-140.49,6.24-20.55,1.05-38.5,8.76-54.02,22.26-4.63,3.64-8.57,8.77-14.92,8.86-.37-.53-.74-1.06-1.11-1.58Z"/>
      <path d="M766.98,1220.97c-12.2,19.96-40.64,19.99-51.22,2.05,3.39-2.39,6.58-.73,9.33.79,15.07,9.32,26.2.75,41.89-2.84Z"/>
    </g>
  </g>
</svg>