<?xml version="1.0" encoding="UTF-8"?>
<svg id="Layer_2" data-name="Layer 2" xmlns="http://www.w3.org/2000/svg" viewBox="0 0 908.15 3139.33">
  <g id="Layer_1-2" data-name="Layer 1">
    <path d="M902.25,1506.31c-3.38-115.1,17.51-235.64-7.75-348.56-18.58-59.26-48.2-102.65-44.09-167.92,1.73-73.42-18.19-143.93-21.69-216.82-.62-51.65-28.85-171.66-81.3-190.83-31.32-13.11-66.4-16.84-95.54-34.82-28.71-20.06-87.99-47.16-101.19-79.2,32.91-12.92,69.97-19.77,106.16-18.05,9.3.69,15.58-2.66,20.5-11.54,20.04-31.33,1.57-62.42-13.36-91.19-21.44-39.91,20.5-79.87,9.25-120.89-16.08-52.89-51.4-97.84-76.6-146.69-18.2-29.67-42.26-54.7-72.54-72.15-23.28-15.23-48.73-5.26-69.98,8.25-38.01-22.65-56.39-21.34-91.1,5.58-26.1,19.74-45.42,45.12-60.93,73.75-20.02,36.64-42.32,72.14-60.86,109.58-29.81,52.48,29,97.93-.06,148.17-16.19,27.52-29.72,58.46-9.56,87.81,4.15,6.9,9.25,10.24,16.99,9.29,38.47-3.7,72.07,8.91,110.25,16.99-23.35,37.84-65.24,54.79-100.66,78.79-29.51,19.1-65.53,22.39-97.51,36.05-40.65,15.8-50.48,64.3-65.54,100.75-24.03,65.76-13.07,137.43-29.91,205-11.82,50.47-3.16,102.84-11.16,153.63-17.06,66.68-56.24,127.21-52.06,198.48-.52,77.84,1.19,155.69,3.33,233.5,4.38,56.05-12.59,112.46-1.54,167.83,7.15,40.56,3.02,82.88,2.45,123.9-1,16.94,1.28,32.23,7.55,47.36,15.2,42.54,29.85,56.06,63.28,85.04,8.72,6.04,26.83,29.34,38.09,22.6,17.14-15-10.84-78.02-23.55-95.6-17.54-26.71-12.28-55.34-9.81-84.91,2.58,1.02,3.53,3.03,4.68,4.93,11.37,18.38,22.04,37.4,34.88,54.77,7.3,13.16,43.35,19.5,32.34-4.27-21.66-51.13-14.14-113.99-58.02-154.1-7.24-7.29-9.9-15.21-9.81-24.89.19-20.91.56-41.83.29-62.74-4.62-91.52,32.91-174.37,59.99-259.55,26.73-81.51,10.98-168.27,28.54-250.83,12.99-40.42,22.01-83.14,38.62-121.87,17.11,57.07,32.11,114.48,45.81,172.42,12.19,47.16-10.93,91.33-31.94,132.21-11.91,19.07-8.78,41.82-16.21,62.21-45.22,92.25-47.06,154.36-45.39,253.9-3.81,60.76-.27,121.6,8.78,181.78,16.34,121.15,46.19,240.21,79.97,357.59,20.56,62.26,23.96,128.49,30.77,193.32,1.41,16.15,3.53,32.64,1.81,48.59-7.29,67.32-24.01,133.38-28.59,201.05-9.85,135.3,56.41,259.02,82.42,388.58,4.06,23.78,6.81,47.32,3.15,71.53-1.58,10.48-.88,21.74,1.09,32.21,2.41,12.77-.51,22.86-9.4,31.75-23.32,23.17-46.85,46.3-67.83,71.63-16.53,20.9,21.7,19.12,33.89,19.59,44.12-.58,88.3-1.33,132.18-6.3,11.68-1.22,14.83-5.69,15.45-17.53.85-16.03-.66-31.92-5.46-47.06-14.89-59.73,16.99-73.48-11.56-153.15-28.43-112.63,3.48-227.41,15.95-339.89,7.2-66.62-23.41-129.33-18.58-195.72,4.42-28.49,7.78-70.65,23.94-93.87,10.81,9.54,10.53,25.52,15.1,38.45,20.11,63.71,3.92,127.88-7.02,191.54-12.65,139.98,56.34,281.8,8,420.27-17.91,42.85,6.65,86.29-4.95,129.54-3.73,13.25-5.3,27.29-6.31,41.09-1.39,18.97-2.59,25.71,26.21,27.65,48.61,4.45,97.34,5.8,146.1,3.07,14.09-.65,16.76-7.77,8.4-19.05-21.19-26.15-46.98-48.26-69.52-73.25-10.02-9.08-7.56-21.86-6.11-33.77.79-26.48-1.89-53.43.55-79.72,4.95-38.87,15.01-76.65,27.66-113.75,36.15-107.58,71.5-221.34,53.05-335.83-7.2-70.88-32.39-140.98-21.71-212.76,2.12-12.97,3.53-26.1,4.48-39.21,3.21-63.73,17.62-125.56,37.32-186.01,31.49-128.08,65.76-255.98,75.75-387.97,5.27-73.22,2.27-147.16,0-220.48-2.79-58.26-29.27-109.14-47.99-162.58-.79-21.01-7.62-39.75-17.56-58.21-15.94-33.55-35.23-69.79-28.28-108.14,9.25-63,30.68-123.25,47.07-184.59,3.45,3.37,4.88,6.79,6.02,10.3,14.36,42.9,28.75,85.94,37.05,130.5,9.25,72.1,1.79,145.8,20.86,216.9,16.92,73.1,57.14,140.05,60.77,216.14,2.23,39.41,2.53,78.93,3.6,118.4.42,32.3-40.27,40.94-48.08,101.54-3.59,27.72-12.87,54.11-20.76,80.79-3.26,10.95-.84,14.06,10.63,14.05,10.24,0,18.02-5.1,23.54-12.87,12.92-19.02,24.31-39.15,36.93-58.4.93.41,1.86.83,2.79,1.24,2.75,29.33,5.94,59.73-12.14,85.19-15.59,25.97-28.32,55.39-27.14,86.25,3.66,33.52,66.47-40.18,79-48.29,17.25-19.66,22.28-47.47,33.34-70.87,5.92-53.34-8.89-108.5,5.53-161.74,7.44-41.03-4.86-83.4-3.49-124.92ZM243.87,440.31c-39.64-52.1,35.14-86.9,12.81-144.08-25.84-66.07-9.98-82.23,22.67-139.4,27.65-46.19,48.72-98.58,94.4-130.4,28.63-20.86,43-21.58,72.87-2.47,23.29,11.17,33.46-36.53,83.39-.23,59.19,40.27,82.6,111.9,119.56,170.28,24.41,39.48,13.1,66.23.41,106.57-18.17,53.32,48.26,85.94,17.43,133.9-2.42,4.18-5.47,6.14-10.34,5.71-56.12-4.55-108.23,19.74-162.95,27.04-85.94,17.83-164.79-32.73-250.25-26.92ZM454.07,2038.8c-13.66-57.14-17.4-117.65-9.21-176.19,10.65-72.41,2.08-144.67-.92-217.24-.03-.68,5.78-18.32,8.69-18.32,2.44,0,4.95,11.11,7.71,14.97.58.81-2.15,82.86-2.74,123.73-.59,91.21,23.01,183.3-3.53,273.05ZM894.64,1632.79c-8.18,41.36-6.86,84.4-3.96,126.12,3.52,24.06-4.22,44.86-13.12,65.99-7.33,17.4-16.82,32.55-32.52,44.19-17.1,12.22-28.35,28.92-46.24,40.8-1.43-21.41,5.78-40.45,14.83-59.28,11.86-22.91,28.17-44.89,25.68-72.07-1.08-17.77-1.77-35.57-2.95-53.33-.48-6.88-6.21-8.06-10.29-3.37-9.77,13.43-19.32,27.03-28.59,40.81-10.63,12.74-14.1,34.02-32.75,37.44,7.66-28.75,16.5-57.36,20.62-87.13,4.88-26.45,17.44-48.73,35.88-67.73,6.97-7.18,10.72-15.18,10.71-24.74-.02-30.98-.4-61.96-.74-92.94,2.56-105.72-60.8-195.78-72-298.85-9.9-65.52-1.59-132.82-17.95-197.38-12.43-41.88-24.69-83.93-39.75-124.96-5.78-15.91,6.87-43.8,10.2-60.81,11.37-37.27,12.58-76.2,18.5-114.45.46-3.69,1.86-8.86-3.29-9.69-5.08-.81-5.58,4.32-6.13,8.12-12.61,110.89-45.97,217.86-74.83,325.16-20.17,83.37-11.58,100.74,25.01,175.33,5.55,11.33,9.7,22.64,10.09,35.34.37,12.07,4.28,22.8,9.6,33.98,17.51,36.78,30.74,75.21,36.85,115.75,12.53,159.86,4.07,322.22-37.08,477.82-11.33,48.62-22.86,97.19-35.01,145.6-16.16,50.52-32.35,101.09-34.8,154.58-3.94,56.64-18.08,113.26-5.75,169.75,18.75,101,38.73,204.58,9.24,305.64-17.62,92.52-62.79,178.01-71.65,272.36-3.31,25.3,5.63,51.16-.34,76.13-2.76,12.4-.1,23.08,8.14,32.34,22.76,26.84,48.97,49.27,71.27,76.6-53.13,5.55-107.3.93-160.7-2.99-6.46-19.78-.38-40.37,3.98-59.69,12.3-40.14-11.97-80.68,3.99-120.49,38.99-118.56,5-242.28-8.52-362.2-7.47-92.81,40.1-178.38,5.19-271.1-3.03-10-5.42-20.22-9.03-30.01-13.89-53.87-2.41-111.28-6.61-166.46-.63-75.42,25.59-148.3,16.29-224.1-5.21-46.93-9.26-94-7.91-141.28.57-33.86,5.23-66.11,4.33-99.88,23.13,20.93,60.61,31.54,111.53,31.54v-10c-34.72,0-81.56-5.48-107.58-31.56-14.78-14.82-16.06-29.85-16.13-30.84v-117.77h-13.82v117.76c-.04.55-.36,4.3-2.29,9.63-1.92,5.28-5.88,13.25-13.84,21.22-26.02,26.09-72.86,31.56-107.58,31.56v10c49.83,0,86.79-10.16,110.02-30.21.18,2.02.43,4.02.56,5.99,3.4,51.75,8.71,103.46,5.28,155.41-5.63,68.18-15.55,136.9-.63,204.65,15.94,75.45,6.55,152.72,9.12,229.28-2.06,37.56-19.85,72.09-25,109.36-14.3,70.72,18.7,138.02,16.1,208.42-6.24,70.26-20.11,140.32-25.79,210.75-5.08,57.01-1.93,113.8,16.09,168.86,7.04,21.49,7.57,43.25,3.68,65.38-1.74,9.89-3.14,19.93-3.55,29.95,1.77,29.02,15.38,55.96,9.2,85.77-53.69,3.81-106.61,8.42-161.6,4.66,9.7-16.39,24.33-27.54,36.65-41.59,10.93-11.5,21.96-22.91,32.78-34.51,9.02-9.67,12.72-20.99,9.8-34.19-3.22-14.59-2.09-29.06-.12-43.82,3.78-58.82-16.1-116.69-33.93-172.02-53.43-152.28-69.53-261.45-31.56-419.98,8.78-44.91,9.97-89.74,2.62-135.06-8.09-58.88-7.93-119.62-30.31-175.6-38-130.71-69.11-263.83-83.24-399.4-9.35-63.45-1.07-127.62-2.74-191.38-2.36-66.77,15.77-130.71,45.61-189.75,1.69-3.81,3.23-8.04,3.34-12.12.6-21.79,6.53-41.72,17.92-60.4,22.67-40.89,37.42-87.07,25.1-133.57-25.21-110.34-66.98-217.33-79.77-330.15-1.34-9.19-2.84-18.37-4.82-27.43-.45-2.06-3.13-5.07-4.87-5.13-4-.14-4.59,3.54-4.17,6.76,5.94,54.5,14.45,108.11,30.17,160.57,2.01,8.37,1.47,15.86-1.13,23.75-10.18,30.87-20.42,61.73-30.17,92.73-11.22,35.65-17.41,72.15-17.56,109.65,1.14,88.05-13.01,176.03-47.47,257.36-33.14,77.14-33.38,160.81-33.16,243.27-.17,12.38,4,22.82,13.26,32.12,41.1,40.36,35.33,101.94,54.8,152.63-17.38-2.7-21.5-21.83-31.08-33.78-12.85-17.37-20.12-36.97-38.15-50.21-5.69,19.23-3.74,37.4-5.98,56.92-5.08,50.06,44.85,84.83,40.81,135.46-19.68-10.53-32.78-29.59-50.28-43.02-10.89-8.16-18.8-18.23-23.86-30.76-11.81-24.22-21.24-48.82-17.96-76.64,2.27-22.67,1.4-45.65,1.87-68.49.39-19.05-1.44-37.86-5.74-56.46-2.53-10.95-3.11-21.97-1.93-33.35,4.85-46.64,5.94-93.32,4.07-140.3-2.51-63.06-1.88-126.24-2.93-189.36-.93-47.84,3.01-96.68,21.64-141.24,40.36-89.41,32.91-106.13,35.89-199.79.64-13.07,2.46-26.27,5.45-39.02,20.7-94.35,4.62-183.69,58.43-270.93,14.02-28.67,49.15-33.68,76.6-42.68,41.17-8.81,74.15-35.7,109.53-56.88,19.26-13.68,39.39-26.36,48.53-49.88,56.58,14.42,113.23,14.59,170.19-.5,12.48,26.11,34.54,41.56,57.85,55.74,32.64,19.17,62.71,43.69,100.66,51.42,28,9.12,63.06,14.12,77.45,43.31,18.78,35,32.47,71.83,40.14,110.8,6.71,56.46,6.28,113.57,19.65,169.33,3.76,17.24,4.07,35.32,4.98,53.06,1.12,42.89-3.08,86.75,14.86,127.04,19.84,49.01,42.79,98.58,40.79,152.48.87,110.7-7.45,221.56-1.12,332.13,1.32,22.63,5.96,45.64.93,68.11Z"/>
  </g>
</svg>