<?xml version="1.0" encoding="UTF-8"?>
<svg id="Layer_2" data-name="Layer 2" xmlns="http://www.w3.org/2000/svg" viewBox="0 0 908.18 3139.32">
  <g id="Layer_1-2" data-name="Layer 1">
    <path d="M454.17,15.91c21.29-13.6,46.69-23.43,70.03-8.23,22.11,12.72,40.86,29.35,56.5,49.38,32.5,46.49,59.17,97.31,85.81,147.35,28.69,55.79-26.39,95.18-2,144.09,17.35,32.39,33.58,62.35,9.2,96.07-2.61,4.3-6.97,4.98-11.26,3.97-39.21-8.54-74.67,10.8-113.18,15.58,8.42,33.18,74.65,63.43,102.5,83.14,41.66,28.04,108.17,18.94,133.04,69.49,24.95,48.57,43.25,100.92,43.92,156.08,3.51,72.88,23.4,143.39,21.71,216.81-4.13,65.32,25.38,108.64,44.05,167.92,10.55,35.94,12.31,73.14,11.71,110.46-.69,79.36-2.87,158.78-3.94,238.09-1.34,41.52,10.89,83.88,3.54,124.92-14.7,53.58.79,109.21-5.83,162.85-10.85,23.07-15.97,50.41-32.93,69.81-15.24,10.21-84.62,93.48-79.21,38.21,8.15-77.54,52.69-72.16,39.34-162.78-21.26,17.09-33.91,75.68-66.52,71.5-7.99-.82-10.23-3.61-7.92-11.47,9.53-27.02,16.56-54.81,21.19-83.07,8.11-59.93,47.55-69.51,48.16-100.35-.86-47.59,1.09-95.33-6.09-142.61-9.02-68.1-43.76-128.74-58.67-195.36-16.74-69.68-13.89-141.46-20.18-212.33-7.17-50.32-25.44-97.79-42.43-145.68-17.19,62.12-38.09,122.88-47.91,186.67-6.99,38.31,12.1,74.65,28.11,108.16,10,18.43,16.85,37.15,17.69,58.17,18.7,53.85,45.38,105.09,48.11,163.73,1.89,72.94,5.23,146.49-.1,219.33-9.95,131.99-44.16,259.89-75.72,387.97-19.76,60.44-33.97,122.28-37.41,185.99-1.46,19.28-4.33,38.45-6.48,57.68-4.31,65.19,16.12,128.8,23.74,193.11,28.94,156.84-56.51,301.12-80.89,451.88-3.04,30.51,2.14,61.89-1.81,92.43-.68,6.47.76,12.38,5.24,17.21,9.47,10.21,19.04,20.33,28.62,30.44,13.84,14.6,27.86,29.04,41.51,43.82,10.4,8.01,7.87,22.91-8.69,21.39-47.64,1.72-95.15,1.28-142.62-3.32-25.23-.93-29.79-7.48-28.05-26.24-.05-14.51,2.21-28.67,6.48-42.27,12.55-43.66-13.35-85.06,5.33-130.64,36.67-113.09,4.01-230.79-9.11-345.02-6.67-50.09,4.41-99.47,13.94-148.34,10.03-50.73.16-101.24-15.11-149.69-.81-2.51-3.7-4.35-5.64-6.49-15.71,19.15-20.34,67.95-24.27,93.59-4.85,66.77,25.87,129.86,18.53,196.88-13.69,119-47.74,241.97-10.23,360.01,18.29,43.44-7.65,88.07,5.79,131.86,4.82,17.5,14.28,62.72-7.22,64.7-44.98,4.33-90.48,4.22-135.65,6.56-13.51.12-50.71.38-31.98-21.15,19.96-23.66,41.95-45.58,64.14-67.14,10.43-10.17,15.19-21.45,11.71-36.6-2.2-9.57-2.46-20.17-.93-29.88,3.82-24.19,1.05-47.75-2.98-71.53-26.5-132.45-95.44-259.39-81.76-397.82,3.77-65.82,23.52-129.67,28.11-195.22-4.79-79.75-8.96-161.75-32.71-238.5-33.79-116.97-63.45-235.67-79.93-356.4-14.54-81.33-8.59-163.57-8.77-245.59-3.28-67.28,16.96-131.05,44.98-191.29,2.88-7.42,4.79-15.55,5.32-23.49,2.77-38.99,32.44-68.79,40.64-106.65,14.98-51.89-7.22-105.42-20.31-155.37-8.01-27.33-14.75-54.34-23.01-81.77-18.51,43.59-32.84,90.47-41.69,137.37-9.75,71.73-3.2,144.91-20.5,215.8-15.58,72.38-54.73,138.06-61.35,212.55-2.42,22.67-2.88,45.57-3.57,68.39-.61,20.12-.22,40.28-.44,60.42-.11,10.1,2.69,18.28,10.24,25.9,43.53,39.87,35.83,102.36,57.47,153.09,11.56,24.7-25.08,17.93-32.62,4.28-15.53-19.33-22.63-40.84-39.65-60.1-17.05,78.72,32.61,94.26,38.65,163.09.65,6.65,2.01,13.98-4.33,18.08-11.03,7.53-29.61-16.09-38.18-22-46.97-40.46-46.51-43.62-68.75-100.28-8.8-53.37,8.5-108.93-6.18-162.69-7.67-53.16,4.52-107.4,2.55-160.98,3.51-106.39-16.97-216.27,9.26-320.57,15.17-49.18,44.75-95.2,43.25-148.28.92-30.17.91-60.41,3.03-90.49,9-49.34,15.47-99.37,18.49-149.56,2.47-52.49,20.4-102.53,44.13-149.04,16.92-34.42,56.66-40.61,89.8-50.87,38.24-9.69,69.47-35.2,102.63-55.35,11.44-7.77,21.88-17.15,32.09-26.55,7.1-6.54,8.5-10.89,10.52-20.82-37.23,1.05-70.88-22.75-108.32-14.4-12.23,2.22-13.41,1.07-19.46-9.27-19.1-28.83-4.59-59,10.72-85.72,28.95-50.24-29.81-95.69.05-148.18,18.55-37.43,40.84-72.93,60.87-109.57,15.52-28.63,34.85-54,60.96-73.73,34.7-26.9,53.11-28.13,91.05-5.52ZM437.59,3123.07c7.12-29.63-7.36-57.13-8.83-86.13,2.65-31.98,11.57-63.94-.17-95.32-40.67-123.26-1.5-251.54,9.75-376.15,3.88-73.48-32.88-144.19-14.86-217.58,6.61-34.73,21.71-68.19,23.74-103.69-2.61-76.55,6.91-153.85-9.17-229.28-19.67-83.05,3.56-166.41,1.48-249.95-1.35-42.16-4.29-84.27-6.87-126.38-.21-3.4-2.47-7.08-4.71-9.88-28.73-29.18-44.89-67.76-75.4-95.48-1.32-1.13-.54-4.69-.73-7.12,15.75-4.53,43.98,49.14,56.08,60.75,10.71,13.69,21.66,27.28,33.58,39.9,9.66,10.22,14.24,9.6,24.61.41,14.6-15.32,26.69-33.06,40.12-49.45,14.14-16.8,24.69-37,42.04-50.79,5.91-5.67,13.77,1.93,5.92,7.47-14.77,12.37-25.07,28.36-35.72,44.06-12.18,17.95-24.04,36.16-39.87,51.24-3.45,3.29-4.04,7.02-4.22,11.45-1.7,62.32-10.52,124.42-4.36,186.75,7.99,64.6,11.98,129.88-1.36,194.18-15.13,70.29-5.92,142.93-8.53,214.29-1.42,25.23,8.59,48.33,15.12,72.2,35.46,92.94-12.47,179.1-4.87,272.22,13.79,119.9,47.37,243.66,8.43,362.2-15.95,39.79,8.66,80.35-3.94,120.45-4.4,19.22-10.77,40.03-3.63,59.66,53.01,3.36,105.6,8.28,161.28,4.28-22.24-28.2-48.35-50.35-71.64-77.4-8.53-9.5-11.58-20.42-8.65-33.33,2.84-12.49,2.61-25.17,1.03-38.04-7.87-107.79,52.27-205.28,70.72-309.32,31.35-107.16,7.39-216.97-11.41-324.03-8.98-50.28,5.86-100.95,8.04-151.34,2.6-53.86,18.48-104.9,34.94-155.74,12.14-48.42,23.66-97,35.01-145.61,34.31-130.59,47.04-265.58,40.35-400.25,4.09-66.9-11.02-133.38-40.26-193.33-4.88-10.39-9.15-20.31-9.36-31.66-2.59-35.82-27.46-65.19-37.87-98.99-28.1-79.88,30.36-181.73,42.33-262.78-31.77,30.14-70.48,46.61-114.19,32.23-4.35-1.43-11.77-1.64-9.53-8.68,1.98-6.24,8.13-2.82,12.11-1.43,32.3,11.28,61.08,2.27,87.88-15.69,48.7-33.5,37.44-101.55,26.65-151.41,9.75-16.94,16.11,34.16,17.22,39.28,2.79,25.06,4.23,50.29-3.88,74.8-3.28,9.91-3.88,19.36-.34,29.35,4.91,13.85,9.09,27.96,13.63,41.94,24.54,66.37,40.33,135.47,37.44,206.55,1.77,70.56,14.47,140.68,41.46,206,36.75,82.83,39.77,172.83,37.81,262.11.01,9.58-3.88,17.54-10.82,24.69-18.44,19.02-30.95,41.32-35.8,67.77-3.91,29.68-13.32,58.32-20.36,86.97,18.43-3.6,22.02-24.87,32.6-37.58,9.27-13.78,18.84-27.36,28.63-40.78,4.2-4.68,9.83-3.24,10.19,3.64,1.17,18.15,1.93,36.33,2.93,54.49,2.23,26.31-13.75,47.67-25.25,69.84-9.05,18.8-16.78,38.38-15.19,59.7,22.26-15.42,39.91-35.07,60.25-52.72,15.18-17.38,20.14-41.74,29.85-62.38,1.93-4.92,3-10.57,2.86-15.84-.7-48.25-7.89-96.96,2.64-144.68,5.19-22.84.66-46.24-.78-69.25-6.28-110.58,2.01-221.44,1.13-332.14,1.94-53.49-20.64-102.77-40.41-151.39-25.24-56.97-8.12-120.57-20.07-180.04-13.38-56.15-13.08-113.64-19.83-170.48-7.79-39.35-21.6-76.55-40.76-111.8-6.35-11.69-15.38-20.72-27.63-25.48-34.71-15.4-73.86-18.83-105.68-40.45-28.2-18.32-58.22-34.09-83.11-57.04-32.65-27.28-20.71-72.49-26.61-109.68-58.24,61.31-96.76,59.24-154.86-.62-1.81,39.28,5.82,85.21-28.13,112.91-24.48,21.63-53.55,36.67-80.68,54.52-31.15,21.28-69.43,24.7-103.57,39.47-13.55,5.08-23.59,14.65-30.22,27.57-51.96,84.64-38.47,172.12-56.62,264.23-9.42,40.14-8.23,81.5-8.63,122.45,1.53,67.45-45.28,123.05-52.02,189.11-12.77,134.15,8.84,269.71-4.9,403.81-1.98,29.09,7.53,57.32,7.36,86.34.55,24.37.65,48.91-1.65,73.13-2.92,35.49,11.33,70.15,31.95,97.94,20.39,17.9,37.95,36.97,60.28,52.9,4.14-52.02-44.9-84.89-40.96-134.99,2.21-18.47-.02-38.2,5.99-55.84,5.08,1.57,9.93,3.4,12.51,8.42,8.75,13.21,17.43,26.46,26.08,39.74,9.5,11.97,13.37,30.54,30.91,33.11-20.03-50.42-13.59-112-54.7-152.24-9.61-9.61-13.76-20.43-13.58-33.18-.17-81.68.01-164.6,32.62-241.07,34.83-82.06,49.33-170.7,48.07-259.58.15-37.1,6.37-73.22,17.4-108.51,10.86-34.71,22.2-69.28,33.57-103.82,2.66-8.08,2.52-15.79-.02-23.77-11.85-36.78-8.29-76.46,2.39-113.14,2.14-11.15,12.7-9.22,8.81,2.67-26.26,83.28,5.47,179.61,107.76,162.31,6.13-1.72,14.93-5.99,19.93-.59,1.92,3.31-1.08,5.75-4.23,6.8-41.52,17.51-88.2.47-119.34-29.72,13.09,60.75,32.12,118.76,46.26,178.99,8.16,34.62,4.28,68.49-10.55,100.94-5.47,11.96-10.21,24.4-16.97,35.6-14.24,20.51-12.69,44.58-18.51,67.43-49.1,92.34-46.82,162.36-46.42,262.74-6.4,139.57,24.16,277.66,57.92,412.28,12.52,69.86,44.2,134.88,50.77,205.91,3.17,35.07,7.74,70.02,10.77,105.1,6.54,49.67-4.56,98.58-13.31,147.23-13.04,71.92-21.74,145.84-4.52,217.74,16.33,113.13,80.91,217.57,77.77,333.2-2,14.76-3.07,29.23.15,43.82,2.92,13.23-.9,24.51-9.9,34.16-10.82,11.61-21.87,23-32.8,34.5-12.19,14.09-27,25.06-36.44,41.49,54.68,3.9,107.36-1.07,161.11-4.42ZM664.77,438.01c37.27-48.6-33.89-84.05-14.6-138.14,3.31-11.92,7.14-23.69,10.81-35.51,8.91-25.8-.34-51.54-13.39-74.08-19.21-34.02-38.47-68.02-58.11-101.8-16.92-28.76-40.07-53.67-68.9-70.81-19.93-13.2-42.43-6.69-60.12,6.92-7.26,6.63-12.85-.39-19.18-4.17-52.11-36.6-108.96,41.78-131.32,82.44-10.08,18.73-21.05,36.98-31.5,55.51-18.85,34.13-46.57,70.12-30.31,110.83,42.78,95.83-46.5,107.71-5.16,168.83,14.08-1.74,28.27,1.67,40.48-4.55,43.66-28.02,29.12-79.42,22.57-122.4-8.47-34.43,10.77-62.8,31.92-87.8,21.96-25.23,43.91-50.66,52.6-83.71,8.03-25.67,16.53-76.73,53.98-52.7,7.82,6.59,14.67,2.88,21.94-1.96,51.01-26.06,39.21,77.04,87.73,120.11,5.8,6.22,11.55,12.59,16.54,19.46,15.59,22.75,37.88,45.46,32.27,75.43-4.29,45.54-26.17,102.6,20.6,133.05,12.27,6.94,27.06,3.31,41.14,5.07ZM564,260.45c-.49-.06-.98-.11-1.46-.17.8-16.74.9-32.25-12.75-44.61-34.26-31.03-41.33-76.59-57.89-117.27-14.6-23.84-31.6,17.63-51.76-2.7-21.58-15.02-27.87,7.78-32.89,24.77-9.15,39.81-27.77,74.49-56.28,103.75-4.08,3.57-5.57,8.08-5.44,13.44,1.09,37.79-2.87,78.27,17.5,112.1,24.22,35.83,68.78,89.12,116.52,63.87,36.01-21.59,69.78-55.67,77.77-97.99,2.78-18.32,4.51-36.79,6.69-55.2ZM454.07,2038.67c26.56-89.35,2.97-181.14,3.6-271.98.65-40.86,5.69-81.91,6.12-122.72h-19.96c3.27,72.9,11.62,145.79,1.08,218.54-8.19,58.51-4.47,119.04,9.17,176.16ZM613.25,438.93c-49.99-40.16-22.11-95.74-20.02-149.7-7.63,13.42-12.64,18.46-25.08,25.49-2.77,19-10.35,36.6-22.25,52.28-3.23,4.25-4.35,8.69-4.18,13.98.41,23.4,0,46.15,3.36,69.53,24.16,3.89,44.68-6.9,68.18-11.57ZM362,450.63c3.3-24.6,2.2-49.64,3.59-74.46.07-2.45-1.2-5.35-2.72-7.38-12.57-16.66-20.5-35.3-23.85-56.16-12.69-1.98-17.5-12.38-24-21.27,1.96,27.8,6.94,54.48,8.99,82.16,3.3,27.25-10.3,46.93-29.02,65.54,23.14,4.6,43.67,15.33,67.03,11.57ZM571.95,300.36c16.54-16.15,16.38-41.8,0-53.78v53.78ZM336.32,299.3c-.64-17.44-1.27-34.52-1.96-53.39-15.31,18.63-13.9,43.06,1.96,53.39Z"/>
  </g>
</svg>