<?xml version="1.0" encoding="UTF-8"?>
<svg id="Layer_2" data-name="Layer 2" xmlns="http://www.w3.org/2000/svg" viewBox="0 0 982.36 3149.27">
  <g id="Layer_1-2" data-name="Layer 1">
    <g>
      <path d="M160.87,1829.47c3.01-21.73,1.17-43.82,1.62-65.72-.06-12.84-4.43-24.36-11.62-34.82-17.56-26.31-38.24-51.25-51.22-80.24-7.67-18.59-5.75-37.87-1.31-57.21,14.17-61.62,28.3-123.26,41.62-185.08,16.78-70.09,6.93-142.25,3.99-213.38,3.43-117.25,47.26-233.95,24.23-351.37-2.2-14.18-5.13-28.25-7.4-42.43-.69-4.29-2.87-10.58,3.45-11.75,6.91-1.28,6.12,5.84,6.72,9.85,5.11,41.49,14.89,82.73,14.62,124.66-.02,13.33,2.2,26.15,6.45,38.82,14.74,43.84,31.17,86.97,54.72,126.96,9.5,16.14,12.92,32.5,9.36,51.18-6.92,39.22-9.73,79.67-6.61,119.42,8.15,54.77-38.63,96.3-32.09,155.32,1.65,45.36,4.02,90.91-5.96,135.58-12.66,80.97,1.4,162.74,6.26,243.8,5.64,86.06,20.48,171.01,39.19,255.08,29.6,109.63,64.53,211.47,39.24,326.63-7.81,69.56-26.03,139.03-15.35,209.31,11.23,138.17,66.26,266.65,100.06,399.97,3.48,12.54-.03,24.19-6.97,34.31-19.75,29.91-45.82,54.63-70.65,80.2-8.89,12.21-27.3,22.27-23.61,38.71,56.22.8,114.05,3.69,169.97-3.53,34.3-6.59,6.88-37.98,23.93-71.57,4.31-10.53,2.61-21.56.07-32.14-15.79-65.78-24.44-132.73-33.52-199.64-8.46-55.24,10.68-108.17,17.68-162.28,5.79-45.42,4.57-90.8-7.75-135.15-7.95-28.61-7.51-55.83,1.92-84.35,18.73-56.67,22.94-115.65,20.22-174.86-8.92-116.43-19.17-233.03-11.15-349.89,4.3-72.38,17.87-144.28,13.58-217.02-.09-4.24-1.49-7.19-5.44-9.38-22.14-12.91-25.45-41.02-33.87-63.07-8.3-27.28-18.8-53.43-35.97-76.49-4.44-3.48-1.74-13.74,4.68-9.52,17.12,18.51,27.23,42.57,35.63,66.08,7.23,21.81,12.34,45.41,25,64.82,13.37,19.19,39.62,19.2,53.29.18,12.66-18.6,17.17-41.53,24.23-62.63,5.56-16.48,26.88-70.21,41.45-68.9,2.34,2.97,2.94,6.96-.19,9.85-36.91,42.83-35.21,118.26-70.64,140.45-7.49,6.37-4.64,18.24-5.5,27.07-2.47,81.73,16.76,162.06,15.95,243.78,7.87,117.94-14.48,234.55-13.12,352.23,2.82,47.78,8.28,95.16,24.05,140.67,6.21,17.92,6.95,35.57,2.16,53.74-18.99,66.11-18.09,135.9-2.63,202.62,3.69,18.64,6.95,37.38,9.95,56.15,4.53,70.85-16.65,140.93-24.9,211.05-3.07,27.66-19.03,55.62-7.47,83.14,4.98,12.06,5.95,24.46,3.58,37.62-2.69,15.01,3.71,25.75,17.91,27.38,56.23,6.38,113.17,4.72,169.62,4.17,15.09-24.43-121.99-109.02-99.81-158.04,39.78-155.05,108.6-307.87,101.55-470.87-7.05-90.16-34.53-179.75-23.37-270.47,11.19-91.84,48.27-178.09,61.56-269.74,22.87-127.62,34.07-258.33,32.46-387.97-5.17-47.73-16.2-95.14-10.42-143.5,4.83-38.41-2.37-75.93-18.74-110.9-10.98-23.09-15.81-47.98-12.18-73.47,2.41-31.9-.26-63.57-4.02-95.19-1.96-20.61-9.78-42.29,2.03-61.34,25.46-46.25,48-94.29,61.61-145.38,4.36-14.92,3.77-31.43,4.38-47.27,1.45-37.39,8.75-73.93,14.89-110.66.56-3.37,2.02-6.76,5.67-5.59,8.49,4.56.24,25.26-.02,33.37-26.29,112.62,6.78,226.09,19,338.38,3.29,47.05-2.73,94.69-3.89,141.83-2.19,98.71,30.55,193.63,51.06,289.16,23.96,83.69-63.42,111.71-64.42,181.57.53,19.34.54,38.7.78,58.05,1.05.18,2.1.35,3.16.53,2.81-11.23,14.12-81.09,34.07-72.33.72.31.85,4.67-.22,6.05-14.38,18.59-17.96,40.8-22.28,62.97-2.51,12.88-6.98,25.39-10.7,38.03-3.5,11.91-3.78,12.65,6.97,18.54,14.24,7.8,28.94,14.79,43.57,21.86,10.45,5.04,19.39,2.57,27.24-5.91,20.42-25.26,56.96-60.68,49.8-95.77-4.62-19.63-8.36-39.47-12.59-59.19-3.39-15.81-3.17-31.47.24-47.31,13.02-60.39,22.5-121.34,25.84-183.07,1.92-133.62,17.15-268.26-5.15-400.95-4.35-40.46-.89-81.54-2.24-122.19-.72-42.12-5.34-83.65-21.31-123.18-8.74-20.38-12.92-41.62-9.54-63.56,2.96-35.71,12.68-72.32-.55-107.11-17.54-46.33-47.58-124.87-101.84-133.86-45.48-9.71-96.59-8.53-136.11-35.52-24.08-20.85-96.81-58.83-99.48-87.59-.02-12.4-5.45-28.91,2.21-33.89,12.9-4.48-1.22,37.81,19.73,51.28,44.67,34.27,89.05,77.94,147.31,84.51,30,6.92,62.21,6.77,91.07,17.48,54.09,33.19,106.59,147.06,92.17,210.21-2.17,25.92-10.7,53.09-.16,78.17,42.72,97.97,15.94,205.99,34.33,308.24,12.73,81.16,2.53,163.6,2.49,245.31.16,99.62-5.91,198.76-28.65,295.98-3.78,17.19-3.04,33.8.69,50.68,3.82,30.21,21.77,62.6,6.88,91.9-13.16,25.35-30,48.01-49.7,68.6-9.05,9.46-20.29,11.68-32.11,7.87-20.41-6.57-39.3-16.46-57.03-28.59-14.02-10.74-1.92-27.74.97-41.18-16.21-15.24-7.48-58.39-9.78-80.31-.21-43.21,43.05-76.53,60.81-114.39,7.29-14.28,9.1-29.59,5.58-45.31-12.36-55.27-24.59-110.57-37.27-165.77-20.06-78.98-17.51-160.17-11.01-240.74-1.2-78.32-19.12-154.35-27.95-232.32-16.82,44.42-32.53,87.73-57.1,128.46-7.44,12.93-8.83,25.99-6.27,40.3,6.51,39.34,9.84,79.6,6.92,119.42-7.74,75.15,44.35,70.56,29.8,204.19-1.4,27.7,1.47,55.07,6.84,82.17,7.39,37.27,7.68,74.92,5.27,112.54-7.6,116.54-14.55,233.34-39.15,347.82-16.05,82.81-47.29,161.66-55.32,246-9.73,84.8,16.04,167.9,22.84,252,8.16,144.19-41.87,282.95-84.41,418.4-6.11,20.02-10.6,40.52-16.24,60.69-3.85,13.78-1.54,26.2,7,37.39,19.64,27.63,44.37,50.78,67.76,75.11,10.33,12.84,27.08,24.09,26.31,42.27-.78,10.08-5.6,14.56-15.6,14.42-47.34-.67-94.68-1.1-142.01-2.16-24.12.18-59.42-8.64-52.4-39.69,7.02-28.7-15.22-49.34-5.34-78.75,14.12-58.58,22.44-118.13,30.73-177.7,6.28-37.84,6.94-75.93-2.53-113.2-15.58-67.8-24.36-137.82-5.15-206.02,6.52-23.5,11.21-47.32,1.5-70.61-53.79-166.85,5.05-341.78-10.86-512.76-4.26-81.57-17.99-161.71-15.11-243.64h-12.27c.34,62.32-2.98,124.05-11.37,185.83-5.33,61.45-5.55,123.38-5.24,184.99,4.79,129.24,34.64,262.28-10.12,387.98-5.92,16.95-6.24,34.02-1.76,51.51,11.59,40.48,16.75,82.02,14.51,124.19-2.79,67.24-32.4,131.59-19.67,199.26,10.75,64.65,17.71,130.03,32.94,193.83,2.96,13.65,2,26.95-3.35,39.94-4.39,10.66-5.45,21.42-2.83,32.99,13.1,62.38-110.06,37.06-146.69,42.87-15.91.19-31.81.77-47.72,1.11-19.15,1.88-18.14-23.91-8.81-34.15,19.37-24.32,42.77-45.01,63.56-68.05,9.36-10.3,17.81-21.51,25.88-32.87,20.45-22.6-18.57-111.38-26.31-141.55-35.56-105.47-64.14-213.87-70.73-325.35-1.14-74.25,16.44-147.22,24.64-220.74,13.85-118.45-41.43-229.43-59.72-344.4-13.5-65.13-21.05-130.97-25.78-197.22-5.43-83.77-19.11-168.33-2.48-251.76,8.1-38.29,5.01-77.34,2.88-116.05-3.04-38.45,10.91-74.05,26.02-108.63,5.76-14.63,7.91-29.6,6.68-45.51-3.08-40-1.17-79.9,5.32-119.53,4.75-18.06,2.38-34.92-7.45-51.26-23.73-39.03-38.65-80.54-54.25-123.58-10.31,62.4-15.38,124.91-27.07,187.12-2.4,101.23,14.06,202.42-16.05,301.92-10.93,42.43-19.93,85.37-29.66,128.11-4.89,21.35-10.28,44.47.76,64.8,18.45,41.07,62.91,71.92,61.81,120.04-2.41,19.85,4.89,64.26-10.11,75.95,4.76,16.13,15.66,35.22-4.32,44.96-14.62,9.77-30.3,17.27-46.68,23.47-35.59,18.32-65.09-41.9-82.23-65.97-23.51-36.82,1.7-79.29,5.07-118.56,1.34-7.82,1-16.38-.59-24.19-15.31-70.54-25.49-142.21-28.35-214.36-1.51-119.71-14.18-240.27,3.39-359.29,2.68-20.72,4.07-41.69,4.72-62.58,1.98-72.65-4.09-147.24,25.02-215.8,13.99-33.43,2.29-68.93-.03-103.43-5.54-57.65,43.11-157.11,90.54-188.94,50.28-22.04,112.72-10.34,159.02-42.92,25.99-19.01,51.89-38.14,77.95-57.05,21.63-14.5,15.34-30.56,19.35-51.83.39-1.61,3.27-3.75,4.87-3.64,1.56.12,4.28,2.92,4.17,4.35-1.62,20.08,1.27,40.86-18.15,56.21-101.25,80.28-102.83,78.95-227.62,98.67-51.49,16.29-83.72,99.55-97.8,147.97-7.4,39.53,4.92,79.43,3.95,119.3-2.89,27.12-18.06,52.26-22.5,79.1-4.67,23.86-6.27,48.43-7.77,72.78-1.76,55.81,2.71,111.99-7.69,167.27-5.94,37.32-7.66,74.9-6.85,112.59,4.66,139.8-1.54,281.18,29.54,418.52,12.22,39.98-1.08,80.74-9.31,120.17-2.75,12.29-1.11,23.78,4.97,34.85,12.41,22.6,27.59,43.11,45.19,61.91,7.56,8.07,16.28,10.37,26.29,5.57,14.65-7.03,29.38-13.96,43.61-21.77,11.27-6.18,10.66-6.65,7.11-19.45-4.66-16.79-8.78-33.73-13.12-50.62-2.44-17.2-8.07-33.14-18.06-47.4-8.53-8.34,3.17-14.85,8.34-6.11,15.13,20.11,18.9,45.08,23.31,69.21.86,0,1.73,0,2.59,0Z"/>
      <path d="M348.27,183.35c3.35-51-3.15-111.92,41.69-147.04C466.68-33,621.31-.56,630.14,112.11c2.16,23.25,2.5,47.01,3.76,70.29,1.44.65,2.13,1.24,2.81,1.22,14.23-.4,18.25,2.49,18.79,16.81,1.28,34.36-5.06,66.5-30.15,92.37-7.78,10.54-23.3,17.16-22.13,31.98.3,14.3-.11,28.65-1.02,42.93-3.95,44.24-73.35,74.37-113.66,72.29-31.57.3-59.52-13.79-83.89-32.84-28.45-17.38-26.67-51.66-25.52-80.88.64-8.23-2.3-13.5-7.84-19.22-9.95-10.26-19.83-20.89-27.8-32.69-16.23-24.02-17.76-51.61-15.56-79.47.17-11.82,10.3-11.93,20.34-11.57ZM339.63,193.8c-6.27,25.28-1.23,53.82,13.28,76.07,7.94,11.36,17.43,21.86,27.47,31.44,6.91,6.6,9.14,13.2,8.87,22.46,1.38,19.97-4.14,51.23,11.15,65.96,49.41,52.93,133.61,52.77,182.21-.88,11.45-13.35,11.09-34.36,10.66-50.92-6.24-55.93,64.63-49.85,50.24-144.74-10.95,3.24-19.91,5.14-19.82-8.92-4.12-49.83,5.37-111.25-42-143.51-72.33-59.41-213.28-30.23-219.48,74.73-1.3,21.67-2.48,43.36-3.48,65.05-.21,17.59-4.07,15.85-19.12,13.26Z"/>
      <path d="M305.21,892.83c-26.93-.7-56.01-3.73-75.47-24.24-17.55-17.47-33.75-36.29-50.47-54.6-4.63-3.87-3.38-13.48,3.92-10.12,54.61,60.58,66.35,88.01,155.72,76.14,25.79-1.87,47.05-17.08,67.94-30.99,8.03-7.27,16.32,2.17,6.42,8.01-31.07,24.77-67.95,37.53-108.04,34.95-.01.29-.02.57-.03.86Z"/>
      <path d="M676.5,893.14c-41.71-1.06-74.98-10.13-107.83-36.51-3.06-2.13-5.67-5.35-2.31-8.52,1.42-1.34,5.87-.89,8.09.31,26.96,19.42,55.91,34,89.77,33.66,74.13,7.5,89.92-31.33,134.96-78.04,24.93-4.48-25.34,41.47-28.3,47.48-24.92,28.66-55.43,44.39-94.37,41.63Z"/>
      <path d="M313.24,1438.11c1.34,1.17,3.73,2.28,4.52,4.08,11.71,27.67,35.58,45.7,54.27,67.74,3.56,7.74-2.8,12.26-8.44,5.67-7.46-10.71-71.87-69.68-50.35-77.5Z"/>
      <path d="M612.72,1520.28c-5.34-6.44-3.56-9.31,1.28-14.45,8.41-9.05,17.65-17.41,25.38-27,8.67-10.75,16.05-22.54,23.94-33.9.97-3.4,4.77-6.68,7.97-5.89,14.76,9.34-47.94,73.88-58.57,81.25Z"/>
      <path d="M578.24,437.8c-8.39,25.29-13.33,50.81-23.86,75.04-6.33,6.35-11.31-2.74-7.51-8.78,6.48-20.6,12.97-41.2,19.46-61.81.32-5.48,4.27-7.65,8.56-10.08,1.26,2.11,2.51,4.22,3.35,5.62Z"/>
      <path d="M404.36,436.97c.85-1.24,2.09-4.48,3.27-4.45,5.8.25,7.9,5.92,8.86,10.94,6.29,19.98,12.57,39.97,18.84,59.95,1.23,3.91,4.48,8.85-.95,11.19-6.38,2.75-7.69-3.44-9.01-7.64-6.97-23.43-15.06-46.26-21.01-69.99Z"/>
      <path d="M685.4,1341.19c-8.93-.56-5.58-8.24-1.01-11.7,10.85-12.03,21.73-24.03,32.59-36.05,1.46-2.83,5.53-5.28,8.17-3.79,3.02,3.12,2.76,7.8-.62,10.75-13.12,13.11-23.91,30.36-39.14,40.79Z"/>
      <path d="M258.61,1287.32c15.39,13.1,26.63,28.69,40.54,43.13,2.82,2.06,1.83,5.97,2.59,9.02-4.59.72-8.86,1.12-11.73-3.28-10.41-11.47-20.83-22.94-31.06-34.57-4.48-4.8-4.39-8.51-.33-14.29Z"/>
      <path d="M491.45,623.76c6.28-5.52,10.34-15.26,18.78-14.12,3.38,1.74,2.74,5.39.6,7.97-14.13,20.87-27.01,17.72-40.05-1.8-.87-1.08-.09-4.88,1.15-5.86,8.01-3,13.26,9.03,19.51,13.81Z"/>
      <path d="M603.94,2406.77c-12.89-2.05-39.75-8.15-39.6-22.14,3.67-9.17,16.63,9.9,38.63,11.67,9.97.61,8.67,7,.97,10.48Z"/>
      <path d="M383.13,2406.29c-6.72.7-6.49-1.51-10.92-4.39,9.26-11.48,27.76-9.19,39.04-18.68,1.87-.65,5.82-.39,6.07.37.71,2.15.94,6.06-.33,7-8.94,7.55-23.46,13.97-33.87,15.69Z"/>
    </g>
  </g>
</svg>