<?xml version="1.0" encoding="UTF-8"?>
<svg id="Layer_2" data-name="Layer 2" xmlns="http://www.w3.org/2000/svg" viewBox="0 0 1626.32 1463.88">
  <g id="Layer_1-2" data-name="Layer 1">
    <g>
      <path d="M4.57,1463.88c-5.67-2.4-4.87-5.55-3.81-8.32,41.9-149.44,91.34-157.39,219.96-221.98,65.74-37.16,374.58-169.82,380.04-229.14,6.84-35.05,3.61-71.11,5.53-106.62.14-5.59-1.41-10.21-5.14-14.58-46.09-49.08-43.44-117.57-56.59-179.48-11.92,1.06-20.29-5.13-27.59-13.36-48.59-51-44.52-123.56-49.81-188.92-2.01-20.2,3.95-58.94,31.82-38.43,8.48,5.59,12.38,15.04,22.15,19.15-3.08-17.57-4.54-35.63-9.56-52.63-14.15-47.85-14.54-96.65-12.36-145.69.46-10.39.2-20.18-2.22-30.41-10.6-41.62,8.77-83.02,37.88-112.25,22.18-20.99,44.85-41.92,68.31-61.41,11.87-4.5,20.09-13.89,29.48-21.76,48.17-36.65,114.48-59.08,174.77-52.02,6.72,4.58,12.56,1.54,18.76-.12,29.64-7.94,59.19-7.95,88.77.47,26.69,2.92,37.73-.17,54.78,25.22,20.56-1.1,35.98,11.1,48.31,25.92,5.01,6.99,11.56,11.36,19.66,14.46,5.7,2.18,12.3,5.63,15.34,10.49,9.68,15.44,25.4,26.55,31.54,44.43,15.99,16.93,30.62,34.53,34.71,58.21,3.98,19.2,7.01,38.64,9.37,58.1,1.12,10.97-2.83,22.44-1.82,33.61,3.37,50.09,2.79,99.78-10.8,148.75-4.59,19.45-8.37,38.48-9.45,58.7,65.08-75.69,53.12,26.24,48.91,69.51-1.81,49.99-11.31,101.22-47.66,138.36-6.88,7.31-14.77,12.45-25.83,11.53-13.27,60.32-9.95,128.44-54.41,176.71-5.27,6.39-7.54,12.71-7.26,20.82,1.17,28.29,1.06,56.63,2.43,84.9,2.73,59.83,71.88,80.21,114.26,109.31,121.83,68.18,248.66,126.57,372.54,190.81,69.92,32.11,99.75,105.53,116.75,175.9-5.32,2.06-6.45-1.23-7.65-3.84-10.22-22.06-20.68-44.01-28.82-66.93-34.39-91.01-137.07-115.02-213.61-159.92-81.42-41.93-163.05-83.45-244.16-125.95-124.33-73.7-121.52-59.43-121.37-204.23-79.4,78.55-156.56,155.88-275.51,99.53-47.7-22.95-80.28-65.38-119.44-99.85-3.28,111.23,17.99,123.21-86.13,184.62-131.99,74.41-269.29,138.95-403.18,209.81-72.44,32.31-90.54,103.01-121.88,168.48ZM703.36,226.11c-36.39,4.08-76.03,2.25-103.81,29.56-39.92,35.15-43.54,58.17-48.67,109.17-2.88,57.19-17.37,113.52-18.73,170.61,1.37,25.92,3.65,51.89,7.28,77.59,20.34,89.85,6.62,198.76,72.69,270.42,60.65,61.08,129.15,141.33,224.86,124.64,71.29-8.31,115.39-67.59,165.53-112.1,28.17-27.69,50.47-62.6,57.26-101.92,12.15-104.73,45.23-211.19,29.39-316.87-8.26-45.86-11.32-92.59-16.53-138.88-3.25-32.44-17.43-58.88-42.19-80.05-46.42-41.06-114.35-32.11-171.23-25.45-51.92,8.69-104.23-1.84-155.86-6.72ZM640.34,225.06c-58.37-39.57-18.87-107.87,26.63-138.36-4.82,12.48-16.97,20.62-24.41,31.66-24.87,30.2-33.39,80.13,7.93,100.24,4.59,2.56,9.05,3.57,14.27,2.89,31.63-4.1,63.26-2.35,94.67,1.83,56.4,9.3,112.79-1.01,169.28-3.82,7.46-.46,14.42-1.69,21.25-4.64,29.55-11.7,50.58-35.2,70.55-58.93,1.77-1.96,3.32-4.95,8.49-4.03-16.48,29.12-37.49,52.25-65.97,68.54,111.81,16.64,70.49,98.29,137.6,3.15,2.34,13.81-16.09,40.17-37.61,56.36,25.62,61.69,20.95,130.49,33.72,195.13,14.86-63.9,25.23-128.5,22.23-194.25-.95-45.52-1.69-96.46-30.06-134.41-2.38,14.33-1.8,28.13-10.35,39.36-.03-22.5,5.31-58.94-12.57-72.89-5.59,31.34-17.91,61.57-42.48,82.69-1.16,1.19-3.71,1.02-5.62,1.49.42-3.39,1.58-5.31,3.04-6.97,16.83-19.15,27.18-41.72,34.94-65.7,2.03-6.28,2.57-12.6-.27-18.48-4.83-8.01-7.8-17.92-16.4-22.74-4.91,24.61-23.39,58.33-35.38,62.2,8.33-16.47,15.13-31.85,22.95-48.32,4.09-8.74,3.32-16.42-3.98-23.49-11.75-12.23-22-26.09-38.55-32.13-4.17-1.98-8.94-2.57-13.28.15-5.54,53.39-42.37,105.3-95.81,119.08,25.34-16.17,49.02-33.74,65.1-60.08,19.82-34.72,43.52-80.38-15.97-85.65-5.7-.69-10.18.38-14.75,4-24.8,19.66-49.52,39.46-74.83,58.45-28.96,20.9-41.06,50.66-46.9,84.78-3.26-6.83-3.51-8.28-2.59-15.29,5.22-67.21,75.33-92.69,119.66-132.11-63.59-16-96.01,2.39-143.8,41.41-.62-.78-1.23-1.55-1.85-2.33,10.29-16.57,26.33-27.33,42.03-38.8-87.3-3.82-200.43,41-213.12,138.12-2.4,16.76.56,34.16-2.27,50.85-.78.09-1.56.18-2.33.27-11.86-36.61-4.22-75.6,15.28-108.36-29.66,24.02-58.93,48.31-78.77,80.84-19.65,30.2-16.34,60.71-11.99,94.57-4.87,68.39,6.96,135.8,20.37,202.63.66,0,1.32,0,1.99.01,13.09-65.46,5.61-135.9,34.77-197.04-26.18-6.6-41.66-54.24-33.06-71.62,2.08,35.96,16.19,60.12,39.82,64.93,17.24-22.03,40.29-36,68.39-45.15ZM1082.83,697.24c8.01.07,12.8-3.95,17.41-8.33,39.03-36.54,45.74-90.24,47.69-140.78.16-25.55,6.94-52.37-.65-77.21-12.29-21.85-46.53,31.6-44.7,44.06.65,61.4-10.57,121.82-19.75,182.26ZM541.11,698.22c.79-.64,1.57-1.28,2.36-1.92-4.44-38.26-11.48-76.21-15.59-114.49-4.13-25.64.05-53.21-6.16-78.24-9.67-13.06-16.44-30.02-31.94-37.13-27.1-10.25-7.23,100.53-8.88,116.59,4.1,43.33,20.27,93,60.22,115.19Z"/>
      <path d="M360.29,1269.26c124.01,49.99,269.6,29.69,384.8,101.86-3.39,4.27-6.66,1.43-9.77.3-19.07-6.93-38.03-14.2-57.21-20.82-102.7-40.83-221.39-23.02-318.8-78.27.33-1.02.66-2.04.98-3.06Z"/>
      <path d="M880.99,1370.36c50.73-27.66,107.69-45.75,164.7-55.73,75.5-8.5,150.14-18.55,221.59-45.75-4.73,14.6-59,27.85-74.48,32.72-34.21,9.01-69.17,13.58-104.22,17.43-71.71,7.03-138.85,30.27-205.95,54.76-.55-1.14-1.1-2.29-1.64-3.43Z"/>
      <path d="M969.01,1029.81c-1.02,23.84-9.67,46.64-16.24,69.36-23.12,62.99-42.9,130.55-80.58,186.2-.69-.41-1.39-.82-2.08-1.23,38.16-82.55,72.43-167,95.88-254.97,1.01.21,2.02.42,3.03.64Z"/>
      <path d="M660.52,1028.25c20.88,89.64,62.26,174.13,94.55,256.85-18.17-9.82-111.97-243.78-94.55-256.85Z"/>
      <path d="M1114.33,541.07c-1.92-12.97,10.4-33.46,17.14-44.86,2.33-3.54,2.66-3.32,7.83-2-7.39,15.37-14.78,30.75-22.23,46.09-.18.37-1.16.35-2.74.77Z"/>
      <path d="M487.39,492.34c10.01-1.64,29.01,42.14,24.19,48.96-1.44-1.34-3.18-2.3-3.92-3.77-6.86-13.63-13.56-27.33-20.22-41.05-.37-.76-.05-1.87-.05-4.14Z"/>
    </g>
  </g>
</svg>