<?xml version="1.0" encoding="UTF-8"?>
<svg id="Layer_2" data-name="Layer 2" xmlns="http://www.w3.org/2000/svg" viewBox="0 0 959.99 3136.02">
  <g id="Layer_1-2" data-name="Layer 1">
    <g>
      <path d="M756.53,983.31c-10.89,25.58-22.79,50.82-33.01,76.64-22.71,47.78-19.71,100.53-23.84,151.89-2.53,36.94,18.69,70.11,30.86,103.82,31.71,65.34.54,138.38,27.88,204.51,15.93,161.04-1.09,325.64-45.69,481.11-18.36,68.25-47.3,136.13-34.67,208.09,7.44,55.37-.97,110.69,1.33,166.15,7.62,51.62,27.16,101.51,26.49,154.45,2.85,156.63-72.83,299.59-98.6,451.77-1.73,8.47.24,15.84,4.27,23.4,6.92,12.96,12.86,26.43,19.42,39.58,14.31,24.39,33.99,45.24,46.22,71.06,5.6,10.54,2.33,17.41-9.87,18.12-18.98,1.09-38,1.62-57.01,1.81-35.68-.15-71.48,1.33-107.07-1.1-8.71-.36-13.29-5.56-15.67-13.22-8.71-21.25,10.24-35.7,7.21-56.26-1.37-12.15.62-23.82,4.75-35.42,11.08-31.08,14.34-63.42,14.36-96.22,1.42-88.88-.04-177.98-17.3-265.52-4.85-25.54-8.19-51.24-9.11-77.36-3.5-63.58,22.11-123.82,21.01-186.96-5.98-54.3-11.45-108.77-16.1-163.24-6.41-113.15,1.39-226.62-1.3-339.92-.08-60.41,5.79-121.76-10.88-180.63-14.03,29.58-11.92,61.39-13.19,93.13-.87,128.45,3.87,257.07,1.99,385.47,2.32,94.22-30.93,188.08-10.13,281.31,4.49,22.82,8.36,45.82,11.3,68.89,8.12,69.95-14.13,138.65-20.09,207.91-7.28,53.22-4.49,106.88-4.86,160.46-.84,38.61,1.23,76.86,14.59,113.61,4.61,12.67,6.48,25.59,4.28,38.88-1.1,20.13,14.24,26.46,8.03,49.4-2.26,10.15-6.98,14.5-17.32,15.69-51.86,2.8-104-.56-155.95-.22-10.87.59-26.19-4.17-17.73-17.27,11.66-18.75,24.13-36.98,36.01-55.6,11.14-17.2,19.1-36.2,28.94-54.09,5.01-8.75,7.18-17.07,5.42-27.55-19.32-94.11-46.39-186.78-75.62-278.26-27.81-93.46-31.62-195.42-3.23-289.15,18.17-62.75-1.97-127.16,7.2-191.05,19.78-120.02-49.42-230.33-64.4-347.43-17.75-111.33-24.66-225.02-17.02-337.56-.05-14.88,6.59-27.65,9.73-41.46,5.14-22.6,5.81-45.23,5.38-68.23-4.17-70.01,10.97-104.81,37.75-168.01,17.24-43.32,2.77-90.86,1.84-135.93-.9-9.96-2.59-20.19-6-29.53-14.62-39.02-28.41-74.67-46.37-113.27-1.36,42.03-10.77,80.09-34.2,115.41-8.01,14-13.58,28.86-14.55,45.03-2.11,35.22-7.32,70.28-5.1,105.71,8.11,83.71,3.99,167.65-11.06,250.37-5.21,52.71-27.64,111.93,3.91,160.18,9.1,13.51,18.53,26.84,28.57,39.65,9.51,12.12,14.94,25.46,14.78,40.73,1.24,40.6-6.67,81.81,1.6,121.91,2.38,8.6-1.59,15.82-8.53,20.07-16.21,9.93-33.09,18.65-52.11,22.24-26.7,7.97-66.28-47.09-81.53-66.16-14.94-22.56-7.28-50.38-.37-74.23,26.72-100.43-11.56-208.43-25.16-309.05-19.44-96.53-20.06-195.44-12.56-293.36,5.33-37.83,14.69-75.47,17.18-113.74,1.69-69.32,34.27-133.28,31.5-202.94,1.83-62.61-9.38-128.56,18.77-187.03,23.55-44.5,41.9-110.5,101.82-111.71,21.55-3.42,44.81-1.08,65.36-8.52,40.01-22.39,78.64-46.93,114.96-74.98,21.93-16.94,22.34-17.08,22.36-44.64.01-18.98-1.51-37.98-2.65-56.95-.55-9.26-2.87-17.02-13.43-20.87-14.09-7.5-22.67-26.43-22.78-42.08.1-20.53,1.44-41.06,2.6-61.57.21-3.77.88-8.55,3.26-10.96,6.89-6.97,3.98-13.72,1.75-21.21-29.55-87.79,24.25-176.8,112.86-198.69,43.72-11.1,88.2,14.85,119.83,43.34,49.03,45.16,49.76,108.44,33.29,169.26,8.93,8.42,8.39,22.13,9.52,35.05.74,23.59,4.93,49.18-6.74,70.89-4.05,7.82-9.31,14.46-17.8,17.57-17.94,2.04-13.43,78.77-12.64,94.24,2.31,25.58,109.93,86.14,136.01,101.04,19.64,8.56,42.85,7.25,63.98,8.93,54.19.95,66.91,44.36,90.52,83.88,59.77,96.4,11.51,212.48,45.76,315.46,19.28,55.78,13.79,115.36,27.28,172.07,40.01,193.15-23.83,383.42-40.19,575.09-8.66,50.6,37.25,101.16,7.98,148.09-14.71,20.74-32.8,38.28-51.45,55.31-8.98,8.19-19.47,10.83-31.31,8.05-17.19-4.05-32.72-12.05-47.87-20.71-8.16-4.67-11.41-12.38-9.66-21.89,5.89-32.04,1.99-64.23,1.47-96.37.03-21.82-2.19-45.56,13.03-63.33,26.91-33.59,54.13-71.03,45.66-116.3-14.19-107.98-36.23-215.92-23.5-325.27,3.69-36.13-1.11-72.08-3.48-108.08-4.26-66.56-48.78-75.25-48.89-165.17-.76-.16-1.53-.31-2.29-.47ZM668.36,3123.61c-8.26-19.06-20.36-35.54-32.19-52.33-14.49-16.81-18.77-38.76-31.02-56.89-6.8-10.3-9.66-21.22-7.46-33.18,3.93-21.35,7.69-42.76,12.73-63.86,20.23-72.82,38.29-146.36,62.54-218.03,11.95-32.24,15.16-66.43,19.4-100.3,4.07-33.63,6.33-67.43.9-100.99-7.18-55.23-29.76-108.69-24.82-165,1.35-20.13,3.44-40.32,3.02-60.43.23-50.13-12.3-101.16-2.32-150.85,18.39-77.75,45.16-153.29,61.1-231.67,19.2-90.56,20.4-183.5,23.36-275.66,7.05-66.43-24.47-128.95-17.65-195.01,7.56-57.72-19.27-109.56-39.5-161.91-5.99-15.41-8.47-31.31-7.11-47.92,4.53-39.13.92-79.82,12.07-117.85,41.72-107.59,85.63-214.93,132.46-320.21,1.06-1.13,4.08-2.03,4.97-1.36,1.54,1.15,3.09,3.72,2.87,5.47-24.61,67.34-67.79,131.92-72.09,204.91-4.24,78.38,41.14,98.55,47.74,161.88,12.05,99.37-9.26,199.48,7.83,298.53,4.17,69.59,42.06,159.53,2.32,222-13.41,24.11-40.43,43.46-41.2,72.67-1.38,40.97,6.23,82.64-1.59,123.1-1.7,6.35.94,11.11,6.21,13.58,13.66,6.39,27.54,12.34,41.52,18,9.26,3.75,17.71,1.11,24.57-5.7,12.94-12.84,25.41-26.14,38.39-38.93,46.16-44.12-7.9-101.38.93-154,6.64-119.74,41.13-235.42,50.2-354.72,9.9-97.3-5.65-192.47-19.19-288.32-.16-65.54-31.39-125.9-31.3-191.28-3.2-59.18,8.56-121.02-10.26-178.22-13.31-34.01-29.01-66.87-49.1-97.58-11.92-20.09-33.54-26.77-55.43-28.53-24.28-3.3-50.79.65-72.49-12.95-26.48-19.93-138.21-76.51-135.55-105.96,1.45-23.93-6.22-95.25,13.88-102.81,14.89-4.64,20.22-16.39,22.78-29.7,4.47-23.19,1.39-46.4-2-69.45-.39-2.62-2.62-6.36-4.8-7.05-7.1-2.25-6.66-6.19-4.29-11.62,7.54-17.29,10.83-35.57,12.03-54.27,7.63-71.3-49.25-132.1-116.15-147.56-37-7.47-73.82,14.49-101.55,37.12-48.69,39.94-56.19,110.8-32.04,166.52,5.27,12.41-11.03,4.94-10.53,19.73-.12,27.86-14.3,82.47,19.78,95.55,19.96,4,13.82,69.09,16.1,86.7.14,29.2-1.01,30.95-24.05,48.88-41.68,29.87-83.73,63.87-132.06,81.57-17.69,2.13-35.44,3.73-53.2,5.18-61.44,1.64-77.66,73.9-101.24,119.2-7.1,16.63-10.99,34.08-11.41,52.02-3.84,72.56,6.6,146.98-14.41,217.59-17.2,51.8-15.92,106.21-24.97,159.47-13.22,58.56-15.12,118.4-14.57,178.24-1.13,132.34,40.22,259.49,50.38,390.85,3.55,34.72.71,67.9-11.15,100.75-3.74,10.36-4.41,22-5.33,33.15-.79,32.86,37.89,59.89,58.97,81.62,6.23,5.55,13.61,8.05,21.55,4.93,14.4-5.65,28.66-11.69,42.74-18.09,5.93-2.69,8.07-7.96,6.34-14.61-7.21-37.44-.25-75.96-.74-113.82,1.86-52.72-64.24-73.9-59.7-145.97,3.64-64.65,16.85-128.4,23.97-192.7,11.24-82.67-6.74-165.95,2.98-248.7-2.05-58.95,50.2-100.38,48.52-159.51.82-18.63,2.52-37.7-3.96-55.37-20.15-54.15-42.15-107.65-65.72-160.41-1.62-3.75-5-8.56.39-11.18,5.54-2.69,7.16,3,8.75,6.73,34.64,80.52,68.52,161.36,101.25,242.67,11.34,31.91,28.6,62.71,32.86,96.6,1.61,51.58,17.49,106.11-5.27,155.01-22.74,50.06-38.92,96.52-33.98,152.41,4.26,39.01-7.14,75.97-14.28,113.63-2.1,26.28-4.21,52.69-3.72,79.01-.44,159.76,23.9,317.63,76.14,468.74,25.67,77.24-1.26,157.07,8.23,236.02,10.19,71.82-28.22,138.59-26.67,210.22-2.58,155.51,75.35,296.57,98.34,448.32,1.64,12.19-.53,22.75-6.71,33.34-9.75,17.5-16.64,36.65-28.21,53.18-11.31,19.41-27.16,36.31-35.33,57.36,51.46,2.47,102.93.64,154.47,1.21,15.31-.05,18.91-4.57,17.15-19.86-3.51-16.04-11.3-22.7-8.73-41.33.43-7.95.11-16.56-2.48-23.96-21.15-57.82-16.34-119.43-16.54-179.8.51-74.27,7.7-148.01,21.83-220.89,11.88-59.54-.64-119.06-11.49-177.74-9.88-42.35-3.03-84.84,3.13-127.17,5.92-64.51,12.15-128.9,10.32-193.96-2.42-118.34-1.03-236.81-2.68-355.2-1.42-19.21,13.57-102.93,29.95-77.39,26.15,56.55,13.64,120.2,15.53,180.44.77,115.65-5.09,231.39.67,346.95,3.61,54.19,9.54,108.21,16.12,162.09,3.75,63.74-23.17,124.28-21.01,188.11.74,26.11,3.81,51.85,8.65,77.42,17.43,86.39,19.01,174.17,18,261.97.24,36.26-1.72,72.25-14.28,106.72-4.63,12.72-6.29,25.54-4.71,38.87,2.37,13.21-7.74,24.04-9.13,36.69-1.5,13.05,2.74,17.94,15.74,17.96,52.38-.59,104.36,1.21,156.72-1.1Z"/>
      <path d="M361.18,1720.02c-55.56-10.4-95.33-55.18-121.21-103.02-3.52-3.73-1.4-7.85-.45-12.14,6.75,1.09,9.5,6.11,12.15,11.78,22.98,40.91,56.55,79.33,103.48,91.06,4.12.44,10.84,3.65,11.07,7.54-.86,2.24-3.77,3.69-5.03,4.77Z"/>
      <path d="M597.63,1719.96c-16.98-9.97,19.27-15.75,25.45-19.23,41-15.75,67.48-54.82,88.6-91.54,1.87-3.15,4.23-6.43,8.18-3.89,3.72,2.39,2.13,6.2.46,9.35-25.93,48.74-65.79,95.27-122.68,105.31Z"/>
      <path d="M536.71,354.87c2.08-16.55,9.58-37.37,17.47-53.26,1.51-3.43,3.17-8.16,8.13-6.2,7.65,3.06-1.17,14.4-2.8,19.48-27.46,45.4,4.02,91.99-9.63,110.79-2.67-2.74-7.22-4.42-6.99-8.86-1.98-19.65-3.93-39.3-6.18-61.95Z"/>
      <path d="M421.62,361.65c-2.8,20.17-2.55,41.33-7.12,61.03-2.63,4.49-7.79,2.7-9.19-1.23-.07-16.83,3.87-33.9,5.33-50.74,4.37-24.33-6.82-46.16-16.37-67.8-1.42-3.31-1.13-6.7,2.61-7.47,10.74-1.68,28.48,55.58,24.75,66.21Z"/>
      <path d="M394.85,3008.64c-.32,14.28-5.06,64.27-21.2,63.41-1.9-2.27-3.18-6.21-.84-8.9,14.4-27.74,12.03-57.86,8.94-87.55.23-1.71,2.39-3.77,4.15-4.44,10.04,1.15,7.03,30.69,8.95,37.48Z"/>
      <path d="M658.32,2354.21c-2.82,7.43-10.45,3.48-11.61-2.82-2.87-12.87-37.92-82.52-28.21-86.07,4.36-.61,7.84,2.36,8.76,6.7,10.23,27.54,21.85,54.24,31.05,82.18Z"/>
      <path d="M345.24,1253.98c20.84,21.76,36.27,49.57,54.96,73.5,1.09,1.52,2.09,3.49,2.13,5.27-.2,8.19-8.68,5.26-11.03-.27-15.18-21.09-30.36-42.19-45.5-63.31-3.54-4.36-11.23-14.59-.56-15.19Z"/>
      <path d="M619.07,1259.72c-15.75,25.47-35.15,49.36-52.23,74.09-1.52,3.09-5.48,4.87-8.42,3.41-10.56-4.99,43.78-66.57,49.46-77.98,2.81-4.98,10.86-8.82,11.19.47Z"/>
      <path d="M343.85,2269.8c-9.77,27.74-21.17,54.32-31.64,81.73-.2,3.41-4.96,7.38-7.3,6.99-5.61-4.24-2.5-10.78-.35-16.08,8.86-23.06,17.79-46.1,26.74-69.13,1.56-7.07,8.96-12.44,12.56-3.52Z"/>
      <path d="M564.05,3007.89c1.8-11.28.91-23.56,4.71-34.32,7.81-7.75,9.56,4.6,7.81,10.47-4,27.78-2.73,54.83,10.22,80.5.93,1.85.64,5.73-.68,7.03-14.71,8.49-23.39-53.92-22.05-63.68Z"/>
      <path d="M541.43,2984.92c-2.36,14.43-4.68,28.88-7.11,43.3-.1,5.63-3.25,8.37-8.37,9.93-5.79-7.18.43-15.79.47-23.88,1.57-17.55,3.62-35.29,3.95-52.85,1.49-5.31,6.12-4.14,8.73-.67,2.73,7.32.66,16.22,1.26,24.01.36.05.71.11,1.07.16Z"/>
      <path d="M417.79,2981.02c.38-6.16.37-12.38,1.37-18.44,1.8-6.83,11.04-6.92,9.69,1.26-2.3,21.89,2.12,43.09,6.27,64.34,1.25,3.25,1.19,8.63-2.27,9.88-5.1.23-7.53-4.25-7.82-8.89-2.75-15.96-5.39-31.93-8.07-47.9.27-.08.55-.17.82-.25Z"/>
      <path d="M409.39,2725.66c-3.01-6.42-5.94-8.72-1.38-13.94,9.55-16.32,19.13-32.63,28.68-48.95,1.43-5.57,10.21-8.73,10.59-.84-6.73,19.26-20.05,36.59-29.44,54.9-1.62,2.79-4.55,4.83-8.46,8.82Z"/>
      <path d="M553.69,2716.95c-5.08,27.5-35.18-44.08-40.44-49.6-2.67-3.47-.8-6.89.78-10.33,5.96,1,8.44,4.59,10.4,9.92,9.57,16.56,20.04,33.36,29.26,50.01Z"/>
      <path d="M447.42,669.73c-.95,11.16-1.89,22.32-2.86,33.48.61,4.61-2.77,6.98-5.73,9.82-2.68-3.12-5.68-5.73-4.25-10.24.97-17.74,1.94-35.48,2.91-53.22-.62-3.4,2.36-7.92,4.91-8.96,9.53-1.37,4.1,22.92,5.42,29.1-.13,0-.26.02-.39.03Z"/>
      <path d="M524.34,708.97c-.16.17-2.02,2.13-3.88,4.08-1.94-1.99-5.2-3.76-5.57-6.01-3.1-19.85-3.12-40.06-3.59-60.12-.78-8.64,10.54-8.58,9.72.22,1.07,19.67,2.11,39.34,3.32,61.82Z"/>
      <path d="M554.13,2301.78c-5.69,16.91-13.16,32.57-19.72,49.08-.74,3.27-4.04,6.24-7.21,5.62-4.82-2.25-2.87-8.19-1.3-12.07,5.3-13.33,10.73-26.62,16.21-39.87,1.71-6.36,8.69-10.52,12.02-2.75Z"/>
      <path d="M410.73,2297.14c1.06.87,3.56,1.9,4.3,3.67,6.73,16.09,13.26,32.27,19.59,48.53,2.91,7.52-5.98,9.86-9.18,3.02-6.65-15.29-13.02-30.71-19.18-46.21-2.13-5.38-.49-8.76,4.47-9Z"/>
    </g>
  </g>
</svg>